<?xml version="1.0" standalone="no"?>
<!DOCTYPE svg PUBLIC "-//W3C//DTD SVG 1.1//EN" "http://www.w3.org/Graphics/SVG/1.1/DTD/svg11.dtd" >
<svg xmlns="http://www.w3.org/2000/svg" xmlns:xlink="http://www.w3.org/1999/xlink" version="1.1">
<metadata></metadata>
<defs>
<font id="picadillyitalic" horiz-adv-x="1708" >
<font-face units-per-em="2048" ascent="1638" descent="-410" />
<missing-glyph horiz-adv-x="389" />
<glyph horiz-adv-x="0" />
<glyph horiz-adv-x="682" />
<glyph unicode=" "  horiz-adv-x="389" />
<glyph unicode="&#x09;" horiz-adv-x="389" />
<glyph unicode="&#xa0;" horiz-adv-x="389" />
<glyph unicode="!" horiz-adv-x="430" d="M121 430l-25 -20h-123l-16 20l170 1086l25 20h163l17 -20zM117 119l-140 -119h-28l-99 119l5 28l139 119h29l98 -119z" />
<glyph unicode="&#x22;" horiz-adv-x="614" d="M188 1229l-22 -21h-123l-18 21l49 389l24 20h164l17 -20zM516 1229l-22 -21h-123l-19 21l49 389l25 20h164l16 -20z" />
<glyph unicode="#" horiz-adv-x="1413" d="M1321 1147l-25 -143l-24 -21h-185l-155 -389h170l16 -21l-24 -143l-25 -20h-211l-156 -390l-22 -20h-164l-18 20l155 390h-450l-156 -390l-22 -20h-164l-19 20l156 390h-117l-16 20l24 143l25 21h158l155 389h-143l-16 21l24 143l25 20h184l154 387l24 21h164l16 -21 l-153 -387h450l154 387l25 21h163l17 -21l-154 -387h144zM883 983h-451l-156 -389h451z" />
<glyph unicode="$" horiz-adv-x="1038" d="M717 1720l-41 -172q99 -14 194 -71l-32 -187l-25 -20q-97 71 -182 92l-121 -500q33 -17 57.5 -31t54 -33.5t50.5 -40t42 -46t33.5 -56t21 -66t8.5 -79t-9 -92.5q-16 -89 -62.5 -165t-111 -129t-140 -88t-155.5 -48l-41 -172l-25 -21h-122l-17 21l39 166q-144 7 -283 77 l74 187l23 20q72 -53 121.5 -74.5t109.5 -25.5l133 553q-30 15 -51.5 25.5t-49 27t-46.5 31.5t-41 35.5t-35.5 41.5t-26 48.5t-17.5 57.5t-4.5 66.5t7.5 77.5q27 162 153.5 281.5t311.5 140.5l41 168l22 21h123zM246 1151q-13 -74 19 -124t100 -91l102 428q-95 -18 -151 -76 t-70 -137zM573 418q13 80 -17.5 132.5t-98.5 94.5l-113 -471q191 44 229 244z" />
<glyph unicode="%" horiz-adv-x="1998" d="M840 1253q-29 -166 -158 -275.5t-295 -109.5t-256 109.5t-61 275.5q31 166 159.5 275.5t294.5 109.5t256.5 -109.5t59.5 -275.5zM1518 1618l-1076 -1598l-22 -20h-164l-18 20l1075 1598l24 20h164zM264 1253q-16 -95 32 -153t122 -58t142.5 58t84.5 153q18 95 -29.5 153 t-121.5 58t-143 -58t-87 -153zM1395 768q166 0 256 -109.5t61 -275.5t-159 -275.5t-296 -109.5t-255 109.5t-60 275.5t158 275.5t295 109.5zM1288 172q74 0 143 58t87 153q16 95 -32 153t-122 58t-142.5 -58t-84.5 -153q-18 -95 29.5 -153t121.5 -58z" />
<glyph unicode="&#x26;" horiz-adv-x="1325" d="M844 0l-133 143q-214 -163 -467 -163q-217 0 -328.5 112t-79.5 297q21 124 123 242t242 188q-88 193 -60 357q20 113 87.5 200t165.5 133.5t210 46.5q170 0 265 -101.5t67 -258.5q-22 -121 -125 -243t-236 -185q-52 62 -79 123q87 43 151.5 121t83.5 184q13 77 -29 126.5 t-131 49.5q-91 0 -150.5 -53t-74.5 -143q-14 -77 11 -169.5t84.5 -193t131 -195t166.5 -202.5q130 167 168 383h205q-22 -131 -87.5 -266.5t-164.5 -249.5q42 -44 89 -93.5t100.5 -105t80.5 -84.5h-286zM279 174q169 0 313 100q-218 242 -324 418q-181 -106 -215 -293 q-19 -110 45.5 -167.5t180.5 -57.5z" />
<glyph unicode="'" horiz-adv-x="286" d="M188 1229l-22 -21h-123l-18 21l49 389l24 20h164l17 -20z" />
<glyph unicode="(" horiz-adv-x="595" d="M233 768q-84 -475 46 -901l-19 -25l-145 -45l-25 19q-151 461 -63 952q86 495 399 952l31 19l129 -45l10 -25q-282 -427 -363 -901z" />
<glyph unicode=")" horiz-adv-x="595" d="M246 1739l26 -19q150 -457 64 -952q-90 -501 -399 -952l-33 -19l-129 45l-11 25q279 419 365 901q83 485 -47 901l18 25z" />
<glyph unicode="*" horiz-adv-x="864" d="M362 2048l121 -328l-82 -47l-174 299zM549 1673l-66 47l236 328l106 -76zM25 1573l376 100l17 -82l-371 -153zM504 1591l45 82l340 -100l-72 -135zM418 1591h86l-39 -372h-143z" />
<glyph unicode="+" horiz-adv-x="983" d="M803 758l-27 -144l-22 -20h-318l-57 -318l-23 -20h-143l-18 20l57 318h-318l-18 20l27 144l24 20h316l57 318l25 20h143l16 -20l-57 -318h319z" />
<glyph unicode="," horiz-adv-x="438" d="M10 229l142 -75l-7 -29l-319 -379l-113 66l6 28l265 389h26z" />
<glyph unicode="-" horiz-adv-x="819" d="M598 532l-23 -20h-655l-18 20l26 144l25 20h655l17 -20z" />
<glyph unicode="." horiz-adv-x="413" d="M123 129l-152 -129h-32l-107 129l6 33l152 129h33l106 -129z" />
<glyph unicode="/" horiz-adv-x="772" d="M602 1575h164l16 -21l-817 -1534l-22 -20h-164l-19 20l818 1534z" />
<glyph unicode="0" horiz-adv-x="1265" d="M653 1554q98 0 174 -34t122 -94t75 -136t37.5 -166.5t4.5 -178t-19 -177.5q-16 -90 -43 -177.5t-67 -178t-96 -166.5t-123 -136t-155 -94t-186 -34q-117 0 -202 49.5t-129.5 128.5t-64.5 184.5t-17 210t22 213.5t52.5 213.5t91 210t130 184.5t174.5 128.5t219 49.5z M412 174q78 0 144.5 43.5t110 106t79 148.5t54 155t31.5 141q8 49 13.5 97.5t7.5 109t-3 113t-20.5 104t-40.5 88.5t-68 59.5t-99 22.5q-65 0 -122.5 -29.5t-100 -80.5t-76 -110.5t-57.5 -130t-39 -128.5t-25 -115q-13 -70 -19 -140.5t-0.5 -155.5t27.5 -148.5t73.5 -106.5 t129.5 -43z" />
<glyph unicode="1" horiz-adv-x="614" d="M412 1556h20l-272 -1536l-23 -20h-164l-18 20l235 1332z" />
<glyph unicode="2" horiz-adv-x="1040" d="M498 1556q216 0 310 -111.5t58 -314.5q-14 -82 -47 -161.5t-71.5 -143t-106 -148t-122 -144.5t-150.5 -166.5t-162 -182.5h489l19 -20l-27 -144l-22 -20h-877q100 110 226 246.5t193.5 210t149.5 166.5t124 149t85 123.5t64.5 124.5t32.5 119q18 108 -30 170.5t-169 62.5 q-156 0 -328 -102l-16 20l33 187q161 79 344 79z" />
<glyph unicode="3" horiz-adv-x="1112" d="M1008 1536l-537 -641q178 -27 269.5 -150t58.5 -315q-24 -135 -109 -237.5t-213 -157.5t-280 -55q-181 0 -316 79l35 197l23 20q139 -102 292 -102q131 0 232 73.5t121 182.5q22 129 -51.5 213t-225.5 84q-109 0 -241 -31l563 656h-500l-16 20l24 144l25 20h846z" />
<glyph unicode="4" horiz-adv-x="1210" d="M979 584l-27 -144l-22 -20h-174l-72 -400l-22 -20h-164l-19 20l72 400h-563v2l-101 139l881 975h164l16 -20l-131 -748l-29 -164h175zM584 604l28 164l76 438l-534 -602h430z" />
<glyph unicode="5" horiz-adv-x="1097" d="M948 1516l-24 -144l-25 -20h-506l-135 -463q62 12 141 12q99 0 181 -32.5t137.5 -92t78 -149t3.5 -197.5q-24 -135 -109 -237.5t-213 -157.5t-280 -55q-181 0 -316 79l35 197l23 20q139 -102 292 -102q131 0 232 73.5t121 182.5q22 127 -48 212t-208 85q-70 0 -165.5 -18 t-166.5 -56l246 883h690z" />
<glyph unicode="6" horiz-adv-x="1196" d="M995 1536l-4 -20q-563 -257 -749 -691q156 76 297 76q201 0 309 -123.5t72 -326.5q-38 -220 -195.5 -345.5t-388.5 -125.5q-89 0 -159 22.5t-115.5 63t-75.5 93t-42.5 115.5t-12.5 127t12 131q13 72 29.5 136t46 142.5t67 148t94.5 148t127 148.5t165.5 143t209.5 138 h313zM487 727q-134 0 -311 -98q-2 -14 -7 -39.5t-7 -36.5q-8 -48 -10 -94.5t7 -99.5t31 -92.5t68.5 -66t112.5 -26.5q131 0 221.5 76t112.5 201q21 114 -37.5 195t-180.5 81z" />
<glyph unicode="7" horiz-adv-x="1011" d="M68 1352h616l-799 -1352h226l899 1536h-910l-24 -20l-25 -144z" />
<glyph unicode="8" horiz-adv-x="1204" d="M993 1176q-19 -108 -97.5 -199.5t-207.5 -147.5q125 -70 190.5 -181.5t43.5 -237.5q-32 -185 -196 -307.5t-380 -122.5t-336 122.5t-88 307.5q23 127 127 238t254 181q-108 56 -154.5 147.5t-27.5 199.5q30 169 174.5 274.5t329.5 105.5q184 0 291 -105t77 -275z M788 1176q8 33 0 67.5t-26.5 63.5t-62.5 47t-107 18t-113.5 -18t-81 -47.5t-48 -62.5t-23.5 -68q-16 -90 49 -163.5t155 -101.5q93 26 167 99t91 166zM709 420q32 197 -248 328q-163 -66 -234 -145.5t-88 -182.5q-21 -113 47 -179.5t195 -66.5q126 0 216.5 66t111.5 180z " />
<glyph unicode="9" horiz-adv-x="1196" d="M627 1556q89 0 159 -22.5t115 -63t75 -93t42 -115.5t12 -127t-12 -131q-18 -103 -44.5 -193t-81.5 -202.5t-131.5 -210t-199.5 -203t-280 -195.5h-314l2 20q565 258 750 691q-153 -76 -297 -76q-201 0 -309 123.5t-72 326.5q38 219 196.5 345t389.5 126zM782 907 q15 60 17 76q8 48 10.5 94t-6.5 99.5t-31 93t-68 66t-112 26.5q-131 0 -222.5 -76t-113.5 -201q-20 -114 38 -195t179 -81q134 0 309 98z" />
<glyph unicode=":" horiz-adv-x="413" d="M244 821l-152 -129h-33l-106 129l6 33l152 129h32l107 -129zM123 129l-152 -129h-32l-107 129l6 33l152 129h33l106 -129z" />
<glyph unicode=";" horiz-adv-x="413" d="M244 821l-152 -129h-33l-106 129l6 33l152 129h32l107 -129zM-14 229l141 -75l-6 -29l-320 -379l-112 66l6 28l264 389h27z" />
<glyph unicode="&#x3c;" horiz-adv-x="954" d="M199 672l491 -271l-98 -135h-29l-663 371l12 70l795 370h28l51 -135z" />
<glyph unicode="=" horiz-adv-x="983" d="M813 819l-25 -20h-819l-16 20l24 144l25 20h819l17 -20zM741 410l-24 -21h-819l-17 21l25 143l24 20h820l16 -20z" />
<glyph unicode="&#x3e;" horiz-adv-x="964" d="M795 707l-13 -70l-794 -371h-29l-49 135l588 271l-492 270l96 135h29z" />
<glyph unicode="?" horiz-adv-x="1040" d="M516 1556q213 0 301.5 -94.5t56.5 -269.5q-17 -96 -69 -190.5t-114.5 -169t-124 -143t-107 -136t-53.5 -123.5l-25 -20h-123l-16 20q12 73 56 149.5t99 144t110.5 135.5t99.5 146.5t57 153.5q20 108 -20 160.5t-161 52.5q-155 0 -327 -102l-17 20l33 187q161 79 344 79z M307 266l99 -119l-5 -28l-139 -119h-29l-98 119l4 28l140 119h28z" />
<glyph unicode="@" horiz-adv-x="2125" d="M1085 1393q109 0 205.5 -17.5t172.5 -50t139.5 -78t107 -102.5t75.5 -123t45 -138.5t15 -151t-14 -159.5q-26 -150 -76.5 -262.5t-116 -179t-139.5 -99t-156 -32.5q-165 0 -233 121q-146 -121 -319 -121q-199 0 -304.5 132t-68.5 333q35 202 186 333.5t350 131.5 q220 0 322 -187l-86 168l22 19h158l14 -19l-110 -632q-30 -154 90 -154q52 0 93.5 22t79.5 72t68 138.5t52 215.5q11 75 12.5 148t-16.5 141t-47.5 128t-80.5 109.5t-116 85.5t-153.5 55.5t-192.5 19.5q-182 0 -341.5 -62t-274.5 -168t-191.5 -244t-103.5 -294 q-22 -113 -15.5 -215.5t34 -190.5t83 -158.5t130.5 -120.5t178 -77t226 -27q228 0 439 70l16 -21l-18 -102q-122 -40 -226 -60t-233 -20q-219 0 -386.5 69t-266.5 191.5t-135 292t-1 369.5q32 185 126.5 349t236 286.5t335 194t410.5 71.5zM623 465q-22 -121 34.5 -209 t161.5 -88q76 0 137 26t123 85l66 374q-42 57 -93.5 83t-127.5 26q-105 0 -193 -88t-108 -209z" />
<glyph unicode="A" horiz-adv-x="1474" d="M1194 20l-23 -20h-182l-18 20l-109 502h-573l-285 -502l-22 -20h-183l-18 20l860 1496l25 20h180l16 -20zM823 707l-147 686l-6 -203l-275 -483h428z" />
<glyph unicode="B" horiz-adv-x="1257" d="M1004 1126q-39 -219 -234 -313q269 -92 219 -373q-20 -116 -75.5 -202t-138.5 -137.5t-182.5 -76t-217.5 -24.5h-453l-18 20l143 809l121 687l25 20h391q223 0 337.5 -110.5t82.5 -299.5zM262 891h207q131 0 215 62.5t104 172.5q18 103 -44.5 164.5t-192.5 61.5h-207z M774 440q25 135 -55 201t-242 66l6 41l-6 -41h-248l-92 -523h269q153 0 248 58t120 198z" />
<glyph unicode="C" horiz-adv-x="1439" d="M877 1556q132 0 228.5 -22.5t205.5 -77.5l-35 -196l-25 -21q-113 69 -197.5 96t-211.5 27q-154 0 -292 -75t-234 -211t-126 -308q-45 -260 81.5 -427t361.5 -167q127 0 220.5 27t231.5 96l17 -21l-35 -196q-128 -55 -232.5 -77.5t-236.5 -22.5q-153 0 -282 57.5t-215 159 t-121.5 250.5t-4.5 321q30 172 118 321t210 250.5t271.5 159t302.5 57.5z" />
<glyph unicode="D" horiz-adv-x="1521" d="M193 1536h493q154 0 282.5 -54.5t215.5 -152t123 -243.5t6 -318q-31 -172 -118 -318t-208.5 -243.5t-269 -152t-301.5 -54.5h-494l-18 20l135 768l129 728zM137 184h309q155 0 292.5 72t233.5 206.5t126 305.5q45 259 -82 421.5t-363 162.5h-309l-100 -564z" />
<glyph unicode="E" horiz-adv-x="1105" d="M987 1516l-24 -144l-25 -20h-594l-82 -461h512l19 -21l-27 -143l-25 -20h-512l-92 -523h635l19 -20l-27 -144l-23 -20h-819l-18 20l135 768l129 728l25 20h778z" />
<glyph unicode="F" horiz-adv-x="1024" d="M987 1516l-24 -144l-25 -20h-594l-90 -502h555l16 -21l-24 -143l-25 -20h-555l-112 -646l-23 -20h-164l-18 20l135 768l129 728l25 20h778z" />
<glyph unicode="G" horiz-adv-x="1470" d="M877 1556q135 0 241.5 -23t212.5 -77l-35 -196l-24 -21q-109 67 -204.5 95t-225.5 28q-154 0 -292 -75t-234 -211t-126 -308q-45 -260 81.5 -427t361.5 -167q161 0 285 39l83 473l23 21h164l18 -21l-108 -606q-127 -55 -239.5 -77.5t-260.5 -22.5q-153 0 -282 57.5 t-215 159t-121.5 250.5t-4.5 321q30 172 118 321t210 250.5t271.5 159t302.5 57.5z" />
<glyph unicode="H" horiz-adv-x="1576" d="M1438 1516l-131 -748l-133 -748l-23 -20h-164l-18 20l123 687h-861l-122 -687l-23 -20h-164l-18 20l133 748l131 748l25 20h163l17 -20l-109 -625h860l109 625l24 20h164z" />
<glyph unicode="I" horiz-adv-x="573" d="M139 20l-22 -20h-164l-19 20l265 1496l24 20h164l16 -20z" />
<glyph unicode="J" horiz-adv-x="839" d="M700 1518l-202 -1149q-11 -65 -29.5 -118.5t-53.5 -105.5t-82.5 -87t-119.5 -56.5t-162 -21.5q-135 0 -211 30l33 183q85 -29 211 -29q90 0 140.5 49t72.5 176l170 963h-287l-16 20l24 144l25 20h471z" />
<glyph unicode="K" horiz-adv-x="1327" d="M373 1516l-264 -1496l-23 -20h-164l-18 20l264 1496l25 20h163zM575 825l-186 -26l176 -27l502 -752l-2 -20h-242l-516 799l770 737h232l-6 -31z" />
<glyph unicode="L" horiz-adv-x="1024" d="M750 164l-27 -144l-23 -20h-778l-18 20l135 768l129 728l25 20h163l17 -20l-129 -728l-107 -604h594z" />
<glyph unicode="M" horiz-adv-x="1683" d="M1544 1516l-131 -748l-133 -748l-23 -20h-163l-19 20l133 748l62 352l129 193l-703 -699l-452 699l59 -193l-61 -352l-133 -748l-23 -20h-164l-18 20l133 748l131 748l25 20h163l17 -20l454 -738l-47 160l559 578l25 20h164z" />
<glyph unicode="N" horiz-adv-x="1576" d="M1438 1516l-131 -748l-133 -748l-23 -20h-164l-18 20l-725 1293l55 -213l-57 -332l-133 -748l-23 -20h-164l-18 20l133 748l131 748l25 20h163l17 -20l727 -1293l-58 213l60 332l131 748l24 20h164z" />
<glyph unicode="O" d="M877 1556q153 0 281.5 -57.5t214.5 -159t121 -250.5t5 -321q-25 -138 -86.5 -262t-149.5 -219t-195 -164.5t-227.5 -106t-242.5 -36.5q-153 0 -282 57.5t-215 159t-121.5 250.5t-4.5 321q30 172 118 321t210 250.5t271.5 159t302.5 57.5zM633 174q154 0 292 75t233.5 211 t125.5 308q45 261 -81 427.5t-361 166.5q-154 0 -292 -75t-234 -211t-126 -308q-45 -260 81.5 -427t361.5 -167z" />
<glyph unicode="P" horiz-adv-x="1169" d="M193 1536h432q224 0 337 -113.5t78 -316.5q-36 -203 -189.5 -316.5t-377.5 -113.5h-250l-114 -656l-23 -20h-164l-18 20l135 768l129 728zM256 860h250q132 0 214.5 64.5t104.5 181.5q20 117 -40.5 181.5t-192.5 64.5h-248z" />
<glyph unicode="Q" d="M1499 768q-38 -213 -160 -382t-291 -265.5t-360 -116.5q176 -213 649 -154l-30 -176q-301 -35 -528.5 46.5t-327.5 273.5q-124 26 -224 92t-165.5 166t-90 230.5t3.5 285.5q30 172 118 321t210 250.5t271.5 159t302.5 57.5t281.5 -57.5t214.5 -159t121 -250.5t5 -321z M623 115l10 59q154 0 292 75t233.5 211t125.5 308q45 261 -81 427.5t-361 166.5q-154 0 -292 -75t-234 -211t-126 -308q-45 -260 81.5 -427t361.5 -167z" />
<glyph unicode="R" horiz-adv-x="1251" d="M1004 1126q-24 -134 -125 -225t-256 -125q50 -34 103 -128.5t91 -194t88.5 -230.5t85.5 -203l-2 -20h-221q-29 61 -66.5 162t-69 186t-68 169t-78 137t-83.5 63h-172l-122 -697l-23 -20h-164l-18 20l143 809l121 687l25 20h391q223 0 337.5 -110.5t82.5 -299.5zM264 901 h207q130 0 214 61t103 164q18 103 -44.5 164.5t-192.5 61.5h-207z" />
<glyph unicode="S" horiz-adv-x="1038" d="M582 1556q153 0 288 -79l-32 -187l-25 -20q-139 102 -264 102q-126 0 -201.5 -63t-91.5 -158q-9 -53 5 -95.5t46 -70.5t76 -55t92.5 -49t97 -51t90.5 -62.5t71 -84t39 -113.5t-5 -152q-24 -134 -116 -236.5t-209 -152t-236 -49.5q-103 0 -181 15t-176 64l74 187l23 20 q87 -63 145 -82.5t148 -19.5q133 0 216.5 65t106.5 189q11 63 -8 112.5t-59 80.5t-92.5 60.5t-108 53.5t-107 59.5t-88.5 78.5t-53 111t0 156q15 85 60 162t112.5 136t162 93.5t200.5 34.5z" />
<glyph unicode="T" horiz-adv-x="1331" d="M1294 1516l-24 -144l-25 -20h-491l-103 -584l-133 -748l-22 -20h-164l-19 20l133 748l103 584h-492l-16 20l25 144l24 20h1188z" />
<glyph unicode="U" horiz-adv-x="1454" d="M1335 1516l-170 -963q-48 -269 -230.5 -421t-463.5 -152t-411 152.5t-83 420.5l170 963l25 20h164l16 -20l-166 -943q-34 -196 46.5 -302.5t271.5 -106.5t309 106.5t152 302.5l165 943l25 20h164z" />
<glyph unicode="V" horiz-adv-x="1433" d="M1417 1516l-839 -1496l-23 -20h-180l-19 20l-311 1496l25 20h182l16 -20l275 -1373l6 203l645 1170l25 20h182z" />
<glyph unicode="W" horiz-adv-x="2146" d="M2114 1516l-779 -1496l-22 -20h-180l-19 20l-158 1115l-8 -240l-381 -875l-22 -20h-191l-18 20l-291 1496l25 20h182l16 -20l254 -1373l6 203l410 957l-23 213l25 20h182l17 -20l161 -1373l13 203l577 1170l25 20h182z" />
<glyph unicode="X" horiz-adv-x="1327" d="M713 778l334 -758l-23 -20h-205l-291 670l-524 -670h-205l-18 20l604 758l-334 738l25 20h205l16 -20l270 -633l492 633l24 20h205l17 -20z" />
<glyph unicode="Y" horiz-adv-x="1341" d="M59 1536h191l16 -20l361 -809l-17 213l494 596l24 20h191l16 -20l-698 -854l-115 -642l-22 -20h-164l-19 20l115 642l-397 854z" />
<glyph unicode="Z" horiz-adv-x="1345" d="M-180 0l1083 1352h-784l-17 20l25 144l25 20h1140l-1099 -1352h800l19 -20l-27 -144l-22 -20h-1143z" />
<glyph unicode="[" horiz-adv-x="696" d="M707 1720l-27 -143l-23 -21h-245l-279 -1576h246l16 -21l-24 -143l-25 -21h-430l-16 21l336 1904l22 21h430z" />
<glyph unicode="\" horiz-adv-x="772" d="M512 20l-23 -20h-163l-19 20l-276 1534l24 21h164l17 -21z" />
<glyph unicode="]" horiz-adv-x="696" d="M563 1720l-336 -1904l-24 -21h-430l-17 21l25 143l24 21h246l279 1576h-246l-18 21l26 143l23 21h430z" />
<glyph unicode="^" horiz-adv-x="813" d="M739 1135l-4 -29l-133 -94l-205 374l-334 -374l-100 94l4 29l461 503h29z" />
<glyph unicode="_" horiz-adv-x="819" d="M541 -143l-25 -21h-778l-17 21l23 123l25 20h778l16 -20z" />
<glyph unicode="`" horiz-adv-x="425" d="M399 1280l-6 -29l-110 -94l-279 305l6 29l127 108h29z" />
<glyph unicode="a" horiz-adv-x="1187" d="M950 983l-129 -737q12 -75 86 -113l-67 -153q-141 30 -197 126q-145 -126 -326 -126q-206 0 -318.5 146t-72.5 366q38 220 202 366t370 146q119 0 198 -52.5t133 -152.5l-63 164l4 20l25 21h139zM131 492q-15 -87 8 -162.5t79 -120.5t132 -45q84 0 150.5 29t132.5 94 l72 411q-45 64 -100.5 92.5t-139.5 28.5q-116 0 -213 -97t-121 -230z" />
<glyph unicode="b" horiz-adv-x="1224" d="M555 1004q220 0 335 -145t77 -367q-40 -223 -206 -367.5t-386 -144.5q-158 0 -266 94l-11 -54l-22 -20h-154l-18 20l280 1588l201 30l-113 -634l-143 -205q88 97 196.5 151t229.5 54zM408 164q129 0 229.5 96.5t124.5 231.5t-43.5 231t-196.5 96q-176 0 -303 -121 l-74 -415q84 -119 263 -119z" />
<glyph unicode="c" horiz-adv-x="974" d="M528 1004q129 0 258 -60l-32 -186l-25 -21q-65 49 -118.5 65.5t-114.5 16.5q-130 0 -235.5 -96.5t-129.5 -230.5t48 -231t202 -97q61 0 120 16.5t142 65.5l16 -21l-32 -186q-147 -59 -279 -59q-221 0 -341.5 145.5t-80.5 366.5q38 221 209.5 366.5t392.5 145.5z" />
<glyph unicode="d" horiz-adv-x="1224" d="M1108 1638l-287 -1618l-22 -20h-154l-18 20l10 54q-140 -94 -299 -94q-220 0 -336 145t-76 367q38 222 205 367t387 145q121 0 210 -54t142 -151l-69 205l106 604zM371 164q179 0 301 119l76 419q-84 117 -263 117q-129 0 -229.5 -96t-124.5 -231t43.5 -231.5 t196.5 -96.5z" />
<glyph unicode="e" horiz-adv-x="1075" d="M487 1004q59 0 111 -12t103 -41t81.5 -76.5t45 -118t-4.5 -166.5q-6 -52 -26 -107l-27 -20h-649q-12 -125 58 -212t192 -87q164 0 303 82l16 -21l-33 -186q-147 -59 -319 -59q-220 0 -336 145t-76 367q38 222 197 367t364 145zM457 829q-108 0 -185.5 -62.5 t-117.5 -168.5l469 20q20 104 -29.5 157.5t-136.5 53.5z" />
<glyph unicode="f" horiz-adv-x="751" d="M784 1638q140 0 213 -30l-49 -162l-24 -21q-82 29 -172 29q-101 0 -175 -29.5t-120 -87.5t-73 -127.5t-44 -165.5l-10 -61h286l17 -20l-25 -144l-24 -20h-287l-100 -574q-40 -222 -109 -398.5t-188 -358.5h-174l-17 30q234 354 293 727l100 574h-145l-14 20l24 144l23 20 h145l15 82q14 82 38 154t73 152t115.5 136.5t171.5 93.5t236 37z" />
<glyph unicode="g" horiz-adv-x="1214" d="M991 983l-186 -1065q-39 -217 -197 -344t-368 -127q-213 0 -340 59l32 187l25 20q65 -48 141 -65t174 -17q120 0 217 79t121 208l27 156q-140 -94 -299 -94q-220 0 -336 145t-76 367q38 222 205 367t387 145q121 0 210 -54t142 -151l-63 164l4 20l25 21h139zM371 164 q176 0 303 121l74 415q-84 119 -263 119q-129 0 -229.5 -96t-124.5 -231t43.5 -231.5t196.5 -96.5z" />
<glyph unicode="h" horiz-adv-x="1153" d="M627 1004q190 0 247 -94.5t21 -295.5l-104 -594l-23 -20h-154l-18 20l104 594q20 108 -5.5 156.5t-121.5 48.5q-194 0 -362 -164l-45 -252l-68 -383l-22 -20h-154l-18 20l67 383l213 1205l201 30l-121 -675l-141 -205q95 105 227 175.5t277 70.5z" />
<glyph unicode="i" horiz-adv-x="620" d="M463 1407l-6 -33l-152 -129h-33l-106 129l6 33l152 129h32zM330 983l16 -20l-29 -164l-137 -779l-22 -20h-154l-18 20l137 779h-92l-17 20l25 144l24 20h267z" />
<glyph unicode="j" horiz-adv-x="600" d="M442 1407l-6 -33l-151 -129h-33l-107 129l7 33l151 129h33zM309 983l17 -20l-129 -738q-40 -222 -109 -398.5t-188 -358.5h-174l-17 30q234 354 293 727l100 574h-92l-16 20l24 144l25 20h266z" />
<glyph unicode="k" horiz-adv-x="1110" d="M385 1638l-287 -1618l-22 -20h-154l-18 20l280 1588zM928 938l-443 -389l349 -504l-5 -25l-22 -20h-189l-364 549l485 434h176l17 -20z" />
<glyph unicode="l" horiz-adv-x="608" d="M217 164q57 0 98 18l19 -20l-29 -162q-53 -20 -141 -20q-63 0 -109 14t-71.5 41.5t-40 59.5t-16 77t2.5 84.5t13 91.5l221 1260l201 30l-226 -1269q-12 -66 -13.5 -106t9.5 -62.5t29.5 -29.5t52.5 -7z" />
<glyph unicode="m" horiz-adv-x="1701" d="M1196 1004q120 0 183 -44.5t75 -131.5t-10 -214l-105 -594l-22 -20h-154l-18 20l104 594q20 107 -2 156t-104 49q-79 0 -164 -46.5t-158 -117.5h-2h2l-112 -635l-23 -20h-154l-18 20l104 594q20 107 -2 156t-104 49q-79 0 -164 -46.5t-158 -117.5l-45 -252l-67 -383 l-23 -20h-153l-19 20l68 383l98 560l25 20h153l17 -20l-142 -205q92 102 219 174t244 72q115 0 176.5 -40.5t79.5 -121.5q88 73 185.5 117.5t189.5 44.5z" />
<glyph unicode="n" horiz-adv-x="1132" d="M606 1004q190 0 247 -94.5t21 -295.5l-104 -594l-22 -20h-154l-19 20l105 594q20 108 -5.5 156.5t-121.5 48.5q-195 0 -363 -164l-45 -252l-67 -383l-23 -20h-153l-19 20l68 383l98 560l25 20h153l17 -20l-142 -205q95 105 227 175.5t277 70.5z" />
<glyph unicode="o" horiz-adv-x="1208" d="M528 1004q221 0 340.5 -145.5t81.5 -366.5q-40 -221 -210.5 -366.5t-391.5 -145.5t-341.5 145.5t-80.5 366.5q38 221 209.5 366.5t392.5 145.5zM381 164q130 0 235 97t129 231t-47.5 230.5t-201.5 96.5t-235.5 -96.5t-129.5 -230.5t48 -231t202 -97z" />
<glyph unicode="p" horiz-adv-x="1204" d="M535 1004q220 0 334.5 -144.5t76.5 -367.5q-40 -223 -206 -367.5t-386 -144.5q-121 0 -210.5 53.5t-143.5 150.5l72 -204l-90 -512l-191 30l258 1465l25 20h153l17 -20l-11 -54q145 95 302 95zM387 164q129 0 229.5 96.5t124.5 231.5t-43 231t-196 96q-178 0 -305 -121 l-74 -415q84 -119 264 -119z" />
<glyph unicode="q" horiz-adv-x="1224" d="M987 963l-262 -1493l-190 28l86 482l141 204q-86 -96 -194.5 -150t-229.5 -54q-220 0 -336 145t-76 367q37 208 203.5 349.5t384.5 141.5h283l-33 -184h-283q-128 0 -228.5 -92.5t-121.5 -214.5q-24 -135 43.5 -231.5t196.5 -96.5q177 0 303 123l123 696h174z" />
<glyph unicode="r" horiz-adv-x="722" d="M244 963l-146 -226q101 116 238 191.5t270 75.5l-65 -195l-25 -21q-183 0 -330 -153l-41 -232l-67 -383l-23 -20h-153l-19 20l68 383l98 560l25 20h153z" />
<glyph unicode="s" horiz-adv-x="905" d="M387 1004q129 0 258 -60l-35 -192l-22 -21q-97 109 -223 109q-64 0 -113 -27.5t-59 -83.5q-6 -36 14.5 -64.5t58 -49t84 -40.5t91.5 -45t80.5 -56t52.5 -81t6 -114q-18 -97 -85.5 -166.5t-155 -101t-183.5 -31.5q-155 0 -279 59l53 182l23 21q99 -99 237 -99 q170 0 191 117q6 34 -14.5 61t-58 47t-83.5 40t-91 46t-80.5 59.5t-51.5 87t-4 120.5q12 72 55 128.5t101 89t118 49t115 16.5z" />
<glyph unicode="t" horiz-adv-x="772" d="M586 963l-25 -144l-24 -20h-230l-76 -430q-12 -66 -13.5 -106t9.5 -62.5t29.5 -29.5t52.5 -7q59 0 99 18l18 -20l-29 -162q-53 -20 -141 -20q-63 0 -109 14t-71.5 41.5t-40 59.5t-16 77t2.5 84.5t13 91.5l78 451h-164l432 409l-41 -225h229z" />
<glyph unicode="u" horiz-adv-x="1112" d="M895 963l-68 -383l-98 -560l-22 -20h-154l-18 20l143 205q-221 -245 -483 -245q-129 0 -197.5 44.5t-82 131t8.5 213.5l105 594l24 20h154l16 -20l-104 -594q-18 -108 7.5 -156.5t121.5 -48.5q105 0 182.5 42.5t159.5 121.5l43 252l67 383l25 20h154z" />
<glyph unicode="v" horiz-adv-x="1064" d="M940 963l-2 -21l-559 -942h-199l-225 942l2 21l25 20h182l188 -872l6 206l381 666h185z" />
<glyph unicode="w" horiz-adv-x="1648" d="M1544 963l-2 -21l-538 -942h-199l-158 750l2 -201l-311 -549h-199l-205 942l3 21l24 20h182l168 -872l6 206l306 553l-17 72l2 21l25 20h182l162 -872l6 206l360 666h185z" />
<glyph unicode="x" horiz-adv-x="1060" d="M891 938l-373 -442l225 -451l-4 -25l-22 -20h-178l-191 399l-330 -399h-178l-18 20l4 25l385 451l-217 442l4 25l25 20h184l176 -385l311 385h185l16 -20z" />
<glyph unicode="y" horiz-adv-x="1085" d="M950 963l-4 -25l-862 -1450h-229l-15 20l27 144l20 20h113l190 328l-227 938l4 25l25 20h182l188 -872l7 206l381 666h184z" />
<glyph unicode="z" horiz-adv-x="1024" d="M690 184l19 -20l-27 -144l-23 -20h-860l709 799h-502l-16 20l24 144l25 20h854l-707 -799h504z" />
<glyph unicode="{" horiz-adv-x="577" d="M557 1720l-27 -143l-22 -21q-45 -8 -85.5 -60.5t-43.5 -121.5l-19 -334q-7 -142 -124 -272q72 -128 28 -272l-98 -334q-22 -69 -0.5 -121.5t63.5 -60.5l17 -21l-25 -143l-24 -21q-149 37 -212.5 138.5t-23.5 238.5l98 324q27 86 14.5 151.5t-67.5 120.5q74 55 109.5 120 t40.5 152l16 324q8 137 107 238.5t260 138.5z" />
<glyph unicode="|" horiz-adv-x="491" d="M53 -184l-24 -21h-144l-16 21l336 1904l22 21h144l18 -21z" />
<glyph unicode="}" horiz-adv-x="577" d="M381 1364l-98 -324q-27 -86 -14 -151.5t69 -120.5q-76 -55 -111.5 -120t-40.5 -152l-16 -324q-6 -136 -105.5 -238t-261.5 -139l-16 21l25 143l24 21q44 8 84.5 60t44.5 122l17 334q7 143 127 272q-75 127 -31 272l100 334q21 70 -0.5 122t-62.5 60l-19 21l27 143l22 21 q149 -37 213 -139t23 -238z" />
<glyph unicode="~" horiz-adv-x="927" d="M522 553q-63 0 -233.5 40t-208.5 40l-55 -80h-119q35 131 99.5 195.5t146.5 64.5q63 0 233 -40t199 -40l55 80h119q-36 -136 -93.5 -198t-142.5 -62z" />
<glyph unicode="&#xa1;" horiz-adv-x="405" d="M102 717h-28l-97 119l5 28l139 119h29l98 -119l-4 -28zM-49 -532h-164l-18 20l208 1065l25 20h123l16 -20l-168 -1065z" />
<glyph unicode="&#xa2;" horiz-adv-x="974" d="M604 1188l-31 -187q105 -9 213 -57l-32 -186l-25 -21q-98 70 -186 80l-107 -649q86 9 207 78l16 -21l-32 -186q-105 -43 -221 -57l-27 -166l-21 -21h-102l-20 21l26 170q-185 29 -278.5 168.5t-57.5 337.5q33 195 172 332.5t330 170.5l33 193l20 20h103zM131 492 q-19 -109 26.5 -197t137.5 -117l104 625q-101 -32 -174.5 -117.5t-93.5 -193.5z" />
<glyph unicode="&#xa3;" horiz-adv-x="1042" d="M612 1556q181 0 316 -79l-33 -187l-25 -20q-139 102 -290 102q-121 0 -192 -62.5t-89 -170.5q-23 -128 -23 -299h377l17 -21l-19 -102l-22 -21h-357q-7 -122 -36.5 -238t-102.5 -257q63 5 145 -3.5t141 -19t133.5 -12t123.5 17.5l18 -20l-26 -144l-23 -20 q-60 -20 -143.5 -17t-156.5 17t-163.5 17t-165.5 -17h-184q134 218 182.5 377.5t53.5 318.5h-218l-18 21l18 102l25 21h195q0 157 22 290q36 203 170 314.5t350 111.5z" />
<glyph unicode="&#xa4;" horiz-adv-x="1294" d="M1135 995l-164 -139q62 -125 35 -293q-27 -166 -138 -293l115 -139l-6 -29l-119 -102h-29l-114 139q-142 -88 -312 -88q-164 0 -280 86l-162 -137h-29l-86 102l7 29l163 139q-62 123 -34 293q27 167 137 293l-115 139l6 29l121 102h29l112 -139q142 88 312 88 q169 0 280 -88l164 139h29l84 -102zM436 236q130 0 235.5 96.5t129.5 230.5t-48 231t-202 97t-235.5 -97t-129.5 -231t48 -230.5t202 -96.5z" />
<glyph unicode="&#xa5;" horiz-adv-x="1341" d="M901 707l19 -21l-19 -102l-24 -21h-259l-20 -123h256l18 -20l-18 -103l-25 -20h-258l-49 -277l-22 -20h-164l-19 20l50 277h-254l-17 20l19 103l22 20h256l21 123h-254l-17 21l19 102l22 21h228l-377 809l24 20h191l16 -20l361 -809l-17 213l494 596l24 20h191l16 -20 l-661 -809h227z" />
<glyph unicode="&#xa6;" horiz-adv-x="491" d="M205 1720l22 21h144l18 -21l-108 -614h-185zM53 -184l-24 -21h-144l-16 21l108 614h185z" />
<glyph unicode="&#xa7;" horiz-adv-x="940" d="M436 1266q-92 0 -149 -38.5t-68 -101.5q-6 -33 8 -60.5t43 -47t67.5 -37t81.5 -34.5t85.5 -36t79.5 -44.5t63.5 -56.5t37.5 -76t1 -99q-15 -91 -76 -156.5t-159 -99.5q81 -43 121 -103.5t24 -152.5q-25 -135 -143.5 -211t-300.5 -76q-175 0 -293 76l26 154 q69 -57 137.5 -80t151.5 -23q108 0 177 35.5t81 103.5q7 41 -10.5 75t-52.5 56.5t-81 45.5t-94.5 41.5t-94 45t-79 55.5t-49.5 73.5t-6 99.5q38 208 240 276q-82 42 -123 97t-27 139q23 136 129.5 211.5t272.5 75.5q177 0 295 -76l-27 -154q-69 57 -137.5 80t-151.5 23z M522 614q10 61 -30 102.5t-119 76.5q-118 -7 -175.5 -58.5t-70.5 -120.5q-5 -29 4 -52.5t33 -43t49.5 -33t65.5 -30.5q99 4 165.5 48.5t77.5 110.5z" />
<glyph unicode="&#xa8;" horiz-adv-x="790" d="M266 1368l-139 -119h-29l-98 119l6 29l139 119h29l98 -119zM717 1368l-139 -119h-29l-98 119l6 29l139 119h29l98 -119z" />
<glyph unicode="&#xa9;" horiz-adv-x="1720" d="M897 1638q167 0 307 -65t230.5 -174.5t128 -261t8.5 -318.5q-39 -223 -182 -411.5t-350.5 -298t-430.5 -109.5q-167 0 -307.5 65t-231 174.5t-128.5 261t-9 318.5q39 223 182.5 411.5t351.5 298t431 109.5zM1530 819q37 212 -34.5 392t-232.5 285.5t-374 105.5 q-160 0 -315.5 -62.5t-277.5 -167.5t-208.5 -249.5t-114.5 -303.5q-21 -108 -9 -207.5t45 -186.5t93 -158.5t136 -122.5t172.5 -79t203.5 -28q160 0 315 62t277.5 167t209 249.5t114.5 303.5zM276 809q27 152 119.5 274t220 187t263.5 65q87 0 151.5 -15.5t136.5 -51.5 l-24 -131l-15 -15q-78 46 -133.5 64t-140.5 18q-157 0 -280.5 -111t-153.5 -284t54 -284t241 -111q84 0 146 18t157 64l10 -15l-22 -131q-85 -36 -156 -51.5t-158 -15.5q-209 0 -332.5 148.5t-83.5 377.5z" />
<glyph unicode="&#xab;" horiz-adv-x="944" d="M104 549l156 -270l-113 -95h-28l-215 351l4 28l340 350h28l78 -94zM477 549l172 -270l-112 -95h-29l-236 351l4 28l361 350h29l77 -94z" />
<glyph unicode="&#xac;" horiz-adv-x="983" d="M807 778l-70 -389l-24 -20h-154l-16 20l41 225h-647l-17 21l27 143l22 21h819z" />
<glyph unicode="&#xad;" horiz-adv-x="819" d="M598 532l-23 -20h-655l-18 20l26 144l25 20h655l17 -20z" />
<glyph unicode="&#xae;" horiz-adv-x="1720" d="M897 1638q167 0 307 -65t230.5 -174.5t128 -261t8.5 -318.5q-39 -223 -182 -411.5t-350.5 -298t-430.5 -109.5q-167 0 -307.5 65t-231 174.5t-128.5 261t-9 318.5q39 223 182.5 411.5t351.5 298t431 109.5zM1530 819q37 212 -34.5 392t-232.5 285.5t-374 105.5 q-160 0 -315.5 -62.5t-277.5 -167.5t-208.5 -249.5t-114.5 -303.5q-21 -108 -9 -207.5t45 -186.5t93 -158.5t136 -122.5t172.5 -79t203.5 -28q160 0 315 62t277.5 167t209 249.5t114.5 303.5zM553 1321h262q149 0 226 -73.5t55 -198.5q-17 -91 -84 -151.5t-170 -82.5 q43 -29 84.5 -115t88 -211t72.5 -178l-2 -14h-147q-23 47 -70 179t-88 210t-86 88h-114l-82 -463l-15 -14h-110l-11 14l97 539l80 457zM729 825l12 72q86 0 142.5 41.5t68.5 110.5q12 68 -29 108.5t-128 40.5h-140l-53 -301h139z" />
<glyph unicode="&#xaf;" horiz-adv-x="593" d="M571 1311l-20 -123l-25 -21h-553l-16 21l20 123l25 20h553z" />
<glyph unicode="&#xb0;" horiz-adv-x="589" d="M348 1741q101 0 156.5 -66.5t36.5 -167.5q-17 -101 -95.5 -167t-179.5 -66t-155 66t-37 167q19 102 96 168t178 66zM293 1419q35 0 63.5 26t34.5 62t-13 62t-54 26t-65 -26.5t-36 -61.5q-6 -36 14.5 -62t55.5 -26z" />
<glyph unicode="&#xb1;" horiz-adv-x="983" d="M809 799l-25 -144l-24 -20h-318l-55 -318l-25 -20h-143l-16 20l55 318h-317l-17 20l25 144l24 20h318l55 318l25 20h143l16 -20l-55 -318h318zM684 205l16 -21l-24 -143l-25 -21h-819l-16 21l24 143l25 21h819z" />
<glyph unicode="&#xb4;" horiz-adv-x="425" d="M346 1599l90 -108l-6 -29l-385 -305l-78 94l6 29l344 319h29z" />
<glyph unicode="&#xb6;" horiz-adv-x="1402" d="M1264 1516l-131 -748l-168 -952l-25 -21h-164l-16 21l168 952l102 584h-348l-102 -584l-168 -952l-25 -21h-164l-16 21l168 952l74 414l-84 -469l-7 -37q-138 0 -240 49.5t-150.5 148.5t-24.5 232q23 133 106.5 232t203 148.5t257.5 49.5h737z" />
<glyph unicode="&#xb7;" horiz-adv-x="413" d="M205 600l-152 -129h-33l-106 129l6 33l152 129h32l107 -129z" />
<glyph unicode="&#xb8;" horiz-adv-x="364" d="M-102 20l-70 -147q65 12 112.5 10t72.5 -15.5t40 -34.5t15 -46.5t-2 -50.5q-16 -86 -121 -146.5t-260 -60.5l-17 20l19 103l22 20q81 0 133 24t58 60q4 23 -9 33.5t-39 11t-61 -3.5l-43 58l47 165h103z" />
<glyph unicode="&#xbb;" horiz-adv-x="944" d="M356 535l-362 -351h-29l-76 95l267 270l-172 270l110 94h29l237 -350zM729 563l-4 -28l-342 -351h-29l-75 95l249 270l-155 270l110 94h29z" />
<glyph unicode="&#xbf;" horiz-adv-x="856" d="M362 737l-98 119l6 29l140 119h28l99 -119l-7 -29l-139 -119h-29zM193 -348q153 0 325 102l19 -20l-33 -187q-165 -79 -344 -79q-213 0 -302 94.5t-59 269.5q17 96 68.5 188.5t114 164t123.5 136.5t107 130.5t54 121.5l25 21h123l16 -21q-13 -73 -56.5 -147.5t-98.5 -139 t-110 -129.5t-98.5 -141t-56.5 -151q-20 -108 21 -160.5t162 -52.5z" />
<glyph unicode="&#xc0;" horiz-adv-x="1474" d="M582 1847l-4 27l100 133l29 8l321 -233l4 -29l-88 -115zM1194 20l-23 -20h-182l-18 20l-109 502h-573l-285 -502l-22 -20h-183l-18 20l860 1496l25 20h180l16 -20zM823 707l-147 686l-6 -203l-275 -483h428z" />
<glyph unicode="&#xc1;" horiz-adv-x="1474" d="M604 1638l-47 115l12 29l404 233l24 -8l56 -133l-13 -27zM1194 20l-23 -20h-182l-18 20l-109 502h-573l-285 -502l-22 -20h-183l-18 20l860 1496l25 20h180l16 -20zM823 707l-147 686l-6 -203l-275 -483h428z" />
<glyph unicode="&#xc2;" horiz-adv-x="1474" d="M565 1638l-78 95l5 28l335 269h29l242 -269l-4 -28l-111 -95l-178 183zM1194 20l-23 -20h-182l-18 20l-109 502h-573l-285 -502l-22 -20h-183l-18 20l860 1496l25 20h180l16 -20zM823 707l-147 686l-6 -203l-275 -483h428z" />
<glyph unicode="&#xc3;" horiz-adv-x="1474" d="M584 1638h-119q30 104 93 162t142 58q49 0 96.5 -20t86.5 -40t67 -20l54 80h118q-64 -220 -225 -220q-50 0 -96.5 20t-87 40t-74.5 20zM1194 20l-23 -20h-182l-18 20l-109 502h-573l-285 -502l-22 -20h-183l-18 20l860 1496l25 20h180l16 -20zM823 707l-147 686l-6 -203 l-275 -483h428z" />
<glyph unicode="&#xc4;" horiz-adv-x="1474" d="M530 1679l-98 119l6 29l140 119h28l99 -119l-7 -29l-139 -119h-29zM1001 1679l-98 119l6 29l140 119h28l99 -119l-7 -29l-139 -119h-29zM1194 20l-23 -20h-182l-18 20l-109 502h-573l-285 -502l-22 -20h-183l-18 20l860 1496l25 20h180l16 -20zM823 707l-147 686l-6 -203 l-275 -483h428z" />
<glyph unicode="&#xc5;" horiz-adv-x="1474" d="M1194 20l-23 -20h-182l-18 20l-109 502h-573l-285 -502l-22 -20h-183l-18 20l815 1416q-78 69 -57 190q17 101 95 167.5t179 66.5t155.5 -66.5t37.5 -167.5q-21 -122 -127 -188zM688 1626q-6 -36 13.5 -62t54.5 -26t64.5 26t35.5 62t-14.5 62t-55.5 26t-63.5 -26 t-34.5 -62zM823 707l-147 686l-6 -203l-275 -483h428z" />
<glyph unicode="&#xc6;" horiz-adv-x="1906" d="M1788 1516l-25 -144l-24 -20h-840l102 -461h574l18 -21l-26 -143l-25 -20h-500l115 -523h416l18 -20l-26 -144l-23 -20h-553l-18 20l-109 502h-573l-285 -502l-22 -20h-183l-18 20l860 1496l25 20h1106zM823 707l-147 686l-6 -203l-275 -483h428z" />
<glyph unicode="&#xc7;" horiz-adv-x="1439" d="M877 1556q132 0 228.5 -22.5t205.5 -77.5l-35 -196l-25 -21q-113 69 -197.5 96t-211.5 27q-154 0 -292 -75t-234 -211t-126 -308q-45 -260 81.5 -427t361.5 -167q127 0 220.5 27t231.5 96l17 -21l-35 -196q-125 -53 -226 -76t-227 -24l-51 -107q65 12 113.5 10 t73.5 -15.5t40 -34.5t15 -46.5t-2 -50.5q-16 -86 -121 -146.5t-260 -60.5l-16 20l18 103l22 20q81 0 133 24t58 60q4 23 -9 33.5t-39 11t-61 -3.5l-43 58l35 129q-138 14 -252 76.5t-189 164.5t-104.5 240t0.5 303q30 172 118 321t210 250.5t271.5 159t302.5 57.5z" />
<glyph unicode="&#xc8;" horiz-adv-x="1105" d="M428 1847l-4 27l100 133l29 8l321 -233l5 -29l-88 -115zM987 1516l-24 -144l-25 -20h-594l-82 -461h512l19 -21l-27 -143l-25 -20h-512l-92 -523h635l19 -20l-27 -144l-23 -20h-819l-18 20l135 768l129 728l25 20h778z" />
<glyph unicode="&#xc9;" horiz-adv-x="1105" d="M451 1638l-48 115l13 29l403 233l25 -8l55 -133l-12 -27zM987 1516l-24 -144l-25 -20h-594l-82 -461h512l19 -21l-27 -143l-25 -20h-512l-92 -523h635l19 -20l-27 -144l-23 -20h-819l-18 20l135 768l129 728l25 20h778z" />
<glyph unicode="&#xca;" horiz-adv-x="1105" d="M412 1638l-78 95l4 28l336 269h28l242 -269l-4 -28l-111 -95l-178 183zM987 1516l-24 -144l-25 -20h-594l-82 -461h512l19 -21l-27 -143l-25 -20h-512l-92 -523h635l19 -20l-27 -144l-23 -20h-819l-18 20l135 768l129 728l25 20h778z" />
<glyph unicode="&#xcb;" horiz-adv-x="1105" d="M377 1679l-98 119l6 29l139 119h29l98 -119l-6 -29l-139 -119h-29zM1022 1827l-6 -29l-139 -119h-29l-98 119l6 29l139 119h29zM971 1536l16 -20l-24 -144l-25 -20h-594l-82 -461h512l19 -21l-27 -143l-25 -20h-512l-92 -523h635l19 -20l-27 -144l-23 -20h-819l-18 20 l135 768l129 728l25 20h778z" />
<glyph unicode="&#xcc;" horiz-adv-x="573" d="M479 1782l4 -29l-88 -115l-362 209l-4 27l100 133l29 8zM139 20l-22 -20h-164l-19 20l265 1496l24 20h164l16 -20z" />
<glyph unicode="&#xcd;" horiz-adv-x="573" d="M584 2007l55 -133l-12 -27l-437 -209l-47 115l13 29l403 233zM139 20l-22 -20h-164l-19 20l265 1496l24 20h164l16 -20z" />
<glyph unicode="&#xce;" horiz-adv-x="573" d="M616 1761l-4 -28l-110 -95l-178 183l-240 -183l-78 95l4 28l336 269h29zM387 1536l16 -20l-264 -1496l-22 -20h-164l-19 20l265 1496l24 20h164z" />
<glyph unicode="&#xcf;" horiz-adv-x="573" d="M217 1798l-139 -119h-29l-98 119l6 29l139 119h29l98 -119zM688 1798l-139 -119h-29l-98 119l6 29l139 119h29l98 -119zM139 20l-22 -20h-164l-19 20l265 1496l24 20h164l16 -20z" />
<glyph unicode="&#xd0;" horiz-adv-x="1521" d="M193 1536h493q154 0 282.5 -54.5t215.5 -152t123 -243.5t6 -318q-31 -172 -118 -318t-208.5 -243.5t-269 -152t-301.5 -54.5h-494l-18 20l121 685h-310l-18 20l27 143l24 21h309l111 627zM137 184h309q155 0 292.5 72t233.5 206.5t126 305.5q45 259 -82 421.5t-363 162.5 h-309l-82 -463h141l17 -21l-27 -143l-22 -20h-142z" />
<glyph unicode="&#xd1;" horiz-adv-x="1576" d="M696 1638h-118q30 104 93 162t142 58q49 0 96.5 -20t86.5 -40t67 -20l53 80h119q-64 -220 -225 -220q-50 0 -96.5 20t-87 40t-74.5 20zM1438 1516l-131 -748l-133 -748l-23 -20h-164l-18 20l-725 1293l55 -213l-57 -332l-133 -748l-23 -20h-164l-18 20l133 748l131 748 l25 20h163l17 -20l727 -1293l-58 213l60 332l131 748l24 20h164z" />
<glyph unicode="&#xd2;" d="M616 1847l-4 27l101 133l28 8l322 -233l4 -29l-88 -115zM877 1556q153 0 281.5 -57.5t214.5 -159t121 -250.5t5 -321q-25 -138 -86.5 -262t-149.5 -219t-195 -164.5t-227.5 -106t-242.5 -36.5q-153 0 -282 57.5t-215 159t-121.5 250.5t-4.5 321q30 172 118 321t210 250.5 t271.5 159t302.5 57.5zM633 174q154 0 292 75t233.5 211t125.5 308q45 261 -81 427.5t-361 166.5q-154 0 -292 -75t-234 -211t-126 -308q-45 -260 81.5 -427t361.5 -167z" />
<glyph unicode="&#xd3;" d="M762 1638l-47 115l12 29l403 233l25 -8l55 -133l-12 -27zM877 1556q153 0 281.5 -57.5t214.5 -159t121 -250.5t5 -321q-25 -138 -86.5 -262t-149.5 -219t-195 -164.5t-227.5 -106t-242.5 -36.5q-153 0 -282 57.5t-215 159t-121.5 250.5t-4.5 321q30 172 118 321 t210 250.5t271.5 159t302.5 57.5zM633 174q154 0 292 75t233.5 211t125.5 308q45 261 -81 427.5t-361 166.5q-154 0 -292 -75t-234 -211t-126 -308q-45 -260 81.5 -427t361.5 -167z" />
<glyph unicode="&#xd4;" d="M682 1638l-78 95l4 28l336 269h29l241 -269l-4 -28l-110 -95l-178 183zM877 1556q153 0 281.5 -57.5t214.5 -159t121 -250.5t5 -321q-25 -138 -86.5 -262t-149.5 -219t-195 -164.5t-227.5 -106t-242.5 -36.5q-153 0 -282 57.5t-215 159t-121.5 250.5t-4.5 321 q30 172 118 321t210 250.5t271.5 159t302.5 57.5zM633 174q154 0 292 75t233.5 211t125.5 308q45 261 -81 427.5t-361 166.5q-154 0 -292 -75t-234 -211t-126 -308q-45 -260 81.5 -427t361.5 -167z" />
<glyph unicode="&#xd5;" d="M700 1638h-118q30 104 93 162t142 58q49 0 96.5 -20t86.5 -40t67 -20l53 80h119q-64 -220 -225 -220q-50 0 -96.5 20t-87 40t-74.5 20zM877 1556q153 0 281.5 -57.5t214.5 -159t121 -250.5t5 -321q-25 -138 -86.5 -262t-149.5 -219t-195 -164.5t-227.5 -106t-242.5 -36.5 q-153 0 -282 57.5t-215 159t-121.5 250.5t-4.5 321q30 172 118 321t210 250.5t271.5 159t302.5 57.5zM633 174q154 0 292 75t233.5 211t125.5 308q45 261 -81 427.5t-361 166.5q-154 0 -292 -75t-234 -211t-126 -308q-45 -260 81.5 -427t361.5 -167z" />
<glyph unicode="&#xd6;" d="M647 1679l-98 119l6 29l139 119h29l98 -119l-6 -29l-139 -119h-29zM1118 1679l-98 119l6 29l139 119h29l98 -119l-6 -29l-139 -119h-29zM877 1556q153 0 281.5 -57.5t214.5 -159t121 -250.5t5 -321q-25 -138 -86.5 -262t-149.5 -219t-195 -164.5t-227.5 -106 t-242.5 -36.5q-153 0 -282 57.5t-215 159t-121.5 250.5t-4.5 321q30 172 118 321t210 250.5t271.5 159t302.5 57.5zM633 174q154 0 292 75t233.5 211t125.5 308q45 261 -81 427.5t-361 166.5q-154 0 -292 -75t-234 -211t-126 -308q-45 -260 81.5 -427t361.5 -167z" />
<glyph unicode="&#xd7;" horiz-adv-x="978" d="M836 973l-349 -297l244 -297l-4 -29l-121 -102h-28l-246 297l-348 -297h-29l-84 102l4 29l350 297l-245 297l6 28l120 103h29l244 -297l350 297h29l84 -103z" />
<glyph unicode="&#xd8;" d="M1190 1657l-62 -146q209 -79 314 -277.5t57 -465.5q-25 -138 -86.5 -262t-149.5 -219t-195 -164.5t-227.5 -106t-242.5 -36.5q-59 0 -127 10l-33 -72l-20 -20h-164l-21 20l58 131q-184 90 -271.5 280t-44.5 439q30 172 118 321t210 250.5t271.5 159t302.5 57.5 q42 0 65 -2l43 103l21 20h163zM190 768q-30 -175 20 -312t165 -212l483 1118h-16q-154 0 -292 -75t-234 -211t-126 -308zM633 174q154 0 292 75t233.5 211t125.5 308q33 196 -32.5 342.5t-207.5 210.5l-493 -1141q41 -6 82 -6z" />
<glyph unicode="&#xd9;" horiz-adv-x="1454" d="M530 1847l-4 27l101 133l28 8l322 -233l4 -29l-88 -115zM1335 1516l-170 -963q-48 -269 -230.5 -421t-463.5 -152t-411 152.5t-83 420.5l170 963l25 20h164l16 -20l-166 -943q-34 -196 46.5 -302.5t271.5 -106.5t309 106.5t152 302.5l165 943l25 20h164z" />
<glyph unicode="&#xda;" horiz-adv-x="1454" d="M635 1638l-47 115l12 29l404 233l24 -8l55 -133l-12 -27zM1335 1516l-170 -963q-48 -269 -230.5 -421t-463.5 -152t-411 152.5t-83 420.5l170 963l25 20h164l16 -20l-166 -943q-34 -196 46.5 -302.5t271.5 -106.5t309 106.5t152 302.5l165 943l25 20h164z" />
<glyph unicode="&#xdb;" horiz-adv-x="1454" d="M555 1638l-78 95l4 28l336 269h29l241 -269l-4 -28l-110 -95l-178 183zM1335 1516l-170 -963q-48 -269 -230.5 -421t-463.5 -152t-411 152.5t-83 420.5l170 963l25 20h164l16 -20l-166 -943q-34 -196 46.5 -302.5t271.5 -106.5t309 106.5t152 302.5l165 943l25 20h164z " />
<glyph unicode="&#xdc;" horiz-adv-x="1454" d="M520 1679l-98 119l6 29l139 119h29l98 -119l-6 -29l-139 -119h-29zM991 1679l-98 119l6 29l139 119h29l98 -119l-6 -29l-139 -119h-29zM1335 1516l-170 -963q-48 -269 -230.5 -421t-463.5 -152t-411 152.5t-83 420.5l170 963l25 20h164l16 -20l-166 -943 q-34 -196 46.5 -302.5t271.5 -106.5t309 106.5t152 302.5l165 943l25 20h164z" />
<glyph unicode="&#xdd;" horiz-adv-x="1341" d="M932 2007l55 -133l-12 -27l-436 -209l-47 115l12 29l403 233zM59 1536h191l16 -20l361 -809l-17 213l494 596l24 20h191l16 -20l-698 -854l-115 -642l-22 -20h-164l-19 20l115 642l-397 854z" />
<glyph unicode="&#xde;" horiz-adv-x="1169" d="M317 1208h250q226 0 338 -116.5t74 -333.5q-39 -217 -192 -334t-379 -117h-248l-51 -287l-23 -20h-164l-18 20l135 768l129 728l25 20h163l17 -20zM190 492h250q133 0 217 67.5t107 198.5t-36.5 198.5t-192.5 67.5h-250l-41 -236z" />
<glyph unicode="&#xdf;" horiz-adv-x="1228" d="M623 729q-6 -36 14.5 -64.5t58 -49t84 -40.5t91.5 -45t80.5 -56t52.5 -81t6 -114q-18 -97 -85.5 -166.5t-155 -101t-183.5 -31.5q-155 0 -279 59l53 182l23 21q99 -99 238 -99q169 0 190 117q6 34 -14.5 61t-58 47t-83.5 40t-91 46t-80.5 59.5t-51.5 87t-4 120.5 q22 127 116 200t228 95q54 72 80 141t22.5 121.5t-26.5 93t-64.5 61.5t-93.5 21q-79 0 -139.5 -29.5t-101 -87t-66.5 -128.5t-43 -165l-143 -819q-40 -222 -109 -398.5t-188 -358.5h-174l-17 30q234 354 293 727l148 840q14 81 38 154t69.5 152t106 136t153.5 94t206 37 q91 0 162.5 -35t113.5 -94t57 -138t0 -164t-65 -176.5t-131 -170.5q-108 0 -166 -29.5t-71 -101.5z" />
<glyph unicode="&#xe0;" horiz-adv-x="1187" d="M705 1157l-279 305l6 29l127 108h29l233 -319l-6 -29zM950 983l-129 -737q12 -75 86 -113l-67 -153q-141 30 -197 126q-145 -126 -326 -126q-206 0 -318.5 146t-72.5 366q38 220 202 366t370 146q119 0 198 -52.5t133 -152.5l-63 164l4 20l25 21h139zM131 492 q-15 -87 8 -162.5t79 -120.5t132 -45q84 0 150.5 29t132.5 94l72 411q-45 64 -100.5 92.5t-139.5 28.5q-116 0 -213 -97t-121 -230z" />
<glyph unicode="&#xe1;" horiz-adv-x="1187" d="M530 1157l-77 94l6 29l344 319h28l91 -108l-7 -29zM950 983l-129 -737q12 -75 86 -113l-67 -153q-141 30 -197 126q-145 -126 -326 -126q-206 0 -318.5 146t-72.5 366q38 220 202 366t370 146q119 0 198 -52.5t133 -152.5l-63 164l4 20l25 21h139zM131 492 q-15 -87 8 -162.5t79 -120.5t132 -45q84 0 150.5 29t132.5 94l72 411q-45 64 -100.5 92.5t-139.5 28.5q-116 0 -213 -97t-121 -230z" />
<glyph unicode="&#xe2;" horiz-adv-x="1187" d="M377 1157l-78 94l6 29l342 299h29l235 -299l-6 -29l-110 -94l-172 205zM950 983l-129 -737q12 -75 86 -113l-67 -153q-141 30 -197 126q-145 -126 -326 -126q-206 0 -318.5 146t-72.5 366q38 220 202 366t370 146q119 0 198 -52.5t133 -152.5l-63 164l4 20l25 21h139z M131 492q-15 -87 8 -162.5t79 -120.5t132 -45q84 0 150.5 29t132.5 94l72 411q-45 64 -100.5 92.5t-139.5 28.5q-116 0 -213 -97t-121 -230z" />
<glyph unicode="&#xe3;" horiz-adv-x="1187" d="M397 1167h-118q30 104 94 161.5t143 57.5q49 0 96 -20t85.5 -39.5t66.5 -19.5l55 79h119q-64 -219 -227 -219q-50 0 -96.5 20t-87 40t-74.5 20zM950 983l-129 -737q12 -75 86 -113l-67 -153q-141 30 -197 126q-145 -126 -326 -126q-206 0 -318.5 146t-72.5 366 q38 220 202 366t370 146q119 0 198 -52.5t133 -152.5l-63 164l4 20l25 21h139zM131 492q-15 -87 8 -162.5t79 -120.5t132 -45q84 0 150.5 29t132.5 94l72 411q-45 64 -100.5 92.5t-139.5 28.5q-116 0 -213 -97t-121 -230z" />
<glyph unicode="&#xe4;" horiz-adv-x="1187" d="M362 1249l-98 119l6 29l140 119h28l99 -119l-7 -29l-139 -119h-29zM987 1397l-6 -29l-139 -119h-29l-98 119l6 29l139 119h29zM950 983l-129 -737q12 -75 86 -113l-67 -153q-141 30 -197 126q-145 -126 -326 -126q-206 0 -318.5 146t-72.5 366q38 220 202 366t370 146 q119 0 198 -52.5t133 -152.5l-63 164l4 20l25 21h139zM131 492q-15 -87 8 -162.5t79 -120.5t132 -45q84 0 150.5 29t132.5 94l72 411q-45 64 -100.5 92.5t-139.5 28.5q-116 0 -213 -97t-121 -230z" />
<glyph unicode="&#xe5;" horiz-adv-x="1187" d="M588 1171q-101 0 -155.5 66.5t-35.5 167.5q17 101 95.5 167t179.5 66t155 -66t37 -167q-19 -101 -97 -167.5t-179 -66.5zM547 1405q-8 -35 12 -61.5t55 -26.5t64 26t37 62q6 36 -14.5 62t-55.5 26t-63.5 -26t-34.5 -62zM950 983l-129 -737q12 -75 86 -113l-67 -153 q-141 30 -197 126q-145 -126 -326 -126q-206 0 -318.5 146t-72.5 366q38 220 202 366t370 146q119 0 198 -52.5t133 -152.5l-63 164l4 20l25 21h139zM131 492q-15 -87 8 -162.5t79 -120.5t132 -45q84 0 150.5 29t132.5 94l72 411q-45 64 -100.5 92.5t-139.5 28.5 q-116 0 -213 -97t-121 -230z" />
<glyph unicode="&#xe6;" horiz-adv-x="1615" d="M1028 1004q59 0 111 -12t103 -41t81.5 -76.5t45 -118t-4.5 -166.5q-6 -48 -27 -107l-26 -20h-649q-12 -126 57.5 -212.5t191.5 -86.5q164 0 303 82l17 -21l-33 -186q-147 -59 -319 -59q-129 0 -225 52t-148 146q-84 -97 -186 -147.5t-203 -50.5q-30 0 -61.5 5.5 t-69.5 22.5t-64 44t-39 75.5t-2 110.5q53 298 611 350q11 38 30 80q5 80 -29 115.5t-124 35.5q-158 0 -349 -92l-16 21l76 196q146 60 342 60q205 0 256 -134q153 134 350 134zM997 829q-108 0 -185.5 -62.5t-117.5 -168.5l469 20q20 104 -29.5 157.5t-136.5 53.5zM174 133 q164 0 291 170q-13 75 -4 150q-68 -10 -117 -19.5t-98.5 -25.5t-81.5 -37t-55.5 -52t-30.5 -71q-9 -54 15 -84.5t81 -30.5z" />
<glyph unicode="&#xe7;" horiz-adv-x="974" d="M528 1004q129 0 258 -60l-32 -186l-25 -21q-65 49 -118.5 65.5t-114.5 16.5q-130 0 -235.5 -96.5t-129.5 -230.5t48 -231t202 -97q61 0 120 16.5t142 65.5l16 -21l-32 -186q-138 -56 -262 -59l-52 -107q65 12 113 10t73 -15.5t40 -34.5t15 -46.5t-3 -50.5 q-16 -86 -121 -146.5t-260 -60.5l-16 20l18 103l23 20q81 0 132.5 24t57.5 60q4 23 -9 33.5t-39 11t-61 -3.5l-43 58l37 131q-187 26 -283 166t-61 340q38 221 209.5 366.5t392.5 145.5z" />
<glyph unicode="&#xe8;" horiz-adv-x="1075" d="M602 1157l-278 305l6 29l127 108h28l234 -319l-6 -29zM487 1004q59 0 111 -12t103 -41t81.5 -76.5t45 -118t-4.5 -166.5q-6 -52 -26 -107l-27 -20h-649q-12 -125 58 -212t192 -87q164 0 303 82l16 -21l-33 -186q-147 -59 -319 -59q-220 0 -336 145t-76 367 q38 222 197 367t364 145zM457 829q-108 0 -185.5 -62.5t-117.5 -168.5l469 20q20 104 -29.5 157.5t-136.5 53.5z" />
<glyph unicode="&#xe9;" horiz-adv-x="1075" d="M365 1157l-78 94l6 29l344 319h29l90 -108l-6 -29zM487 1004q59 0 111 -12t103 -41t81.5 -76.5t45 -118t-4.5 -166.5q-6 -52 -26 -107l-27 -20h-649q-12 -125 58 -212t192 -87q164 0 303 82l16 -21l-33 -186q-147 -59 -319 -59q-220 0 -336 145t-76 367q38 222 197 367 t364 145zM457 829q-108 0 -185.5 -62.5t-117.5 -168.5l469 20q20 104 -29.5 157.5t-136.5 53.5z" />
<glyph unicode="&#xea;" horiz-adv-x="1075" d="M274 1157l-77 94l6 29l342 299h28l236 -299l-6 -29l-111 -94l-172 205zM487 1004q59 0 111 -12t103 -41t81.5 -76.5t45 -118t-4.5 -166.5q-6 -52 -26 -107l-27 -20h-649q-12 -125 58 -212t192 -87q164 0 303 82l16 -21l-33 -186q-147 -59 -319 -59q-220 0 -336 145 t-76 367q38 222 197 367t364 145zM457 829q-108 0 -185.5 -62.5t-117.5 -168.5l469 20q20 104 -29.5 157.5t-136.5 53.5z" />
<glyph unicode="&#xeb;" horiz-adv-x="1075" d="M250 1249l-98 119l6 29l139 119h29l98 -119l-6 -29l-139 -119h-29zM874 1397l-6 -29l-139 -119h-29l-98 119l6 29l140 119h28zM487 1004q59 0 111 -12t103 -41t81.5 -76.5t45 -118t-4.5 -166.5q-6 -52 -26 -107l-27 -20h-649q-12 -125 58 -212t192 -87q164 0 303 82 l16 -21l-33 -186q-147 -59 -319 -59q-220 0 -336 145t-76 367q38 222 197 367t364 145zM457 829q-108 0 -185.5 -62.5t-117.5 -168.5l469 20q20 104 -29.5 157.5t-136.5 53.5z" />
<glyph unicode="&#xec;" horiz-adv-x="620" d="M401 1280l-6 -29l-110 -94l-279 305l6 29l127 108h29zM330 983l16 -20l-29 -164l-137 -779l-22 -20h-154l-18 20l137 779h-92l-17 20l25 144l24 20h267z" />
<glyph unicode="&#xed;" horiz-adv-x="620" d="M594 1491l-6 -29l-385 -305l-78 94l6 29l344 319h29zM330 983l16 -20l-29 -164l-137 -779l-22 -20h-154l-18 20l137 779h-92l-17 20l25 144l24 20h267z" />
<glyph unicode="&#xee;" horiz-adv-x="620" d="M586 1280l-6 -29l-111 -94l-172 205l-246 -205l-78 94l7 29l342 299h28zM330 983l16 -20l-29 -164l-137 -779l-22 -20h-154l-18 20l137 779h-92l-17 20l25 144l24 20h267z" />
<glyph unicode="&#xef;" horiz-adv-x="620" d="M27 1249l-99 119l6 29l140 119h28l99 -119l-6 -29l-140 -119h-28zM651 1397l-6 -29l-139 -119h-29l-98 119l6 29l139 119h29zM330 983l16 -20l-29 -164l-137 -779l-22 -20h-154l-18 20l137 779h-92l-17 20l25 144l24 20h267z" />
<glyph unicode="&#xf0;" horiz-adv-x="1196" d="M874 1384l-94 -65q73 -94 115.5 -197.5t54 -207t7 -193t-22.5 -189.5q-14 -81 -43 -157.5t-78 -149t-113.5 -126.5t-155 -86.5t-196.5 -32.5q-230 0 -344 125.5t-76 345.5q24 134 102.5 237t192.5 158t246 55q151 0 281 -80q-17 205 -140 379l-188 -133l-25 8l-53 113 l8 31l150 104q-114 110 -269 193l5 20h313q59 -43 119 -96l135 96l24 -8l54 -113zM381 164q69 0 126.5 26.5t94.5 66t65 94.5t42.5 102.5t23.5 99.5q10 67 12 82q-149 102 -284 102q-129 0 -217 -82t-111 -204q-23 -133 43 -210t205 -77z" />
<glyph unicode="&#xf1;" horiz-adv-x="1132" d="M358 1167h-118q30 104 94 161.5t143 57.5q49 0 96 -20t85.5 -39.5t66.5 -19.5l55 79h119q-64 -219 -227 -219q-50 0 -96.5 20t-87 40t-74.5 20zM606 1004q190 0 247 -94.5t21 -295.5l-104 -594l-22 -20h-154l-19 20l105 594q20 108 -5.5 156.5t-121.5 48.5 q-195 0 -363 -164l-45 -252l-67 -383l-23 -20h-153l-19 20l68 383l98 560l25 20h153l17 -20l-142 -205q95 105 227 175.5t277 70.5z" />
<glyph unicode="&#xf2;" horiz-adv-x="1208" d="M674 1157l-279 305l6 29l127 108h29l234 -319l-7 -29zM528 1004q221 0 340.5 -145.5t81.5 -366.5q-40 -221 -210.5 -366.5t-391.5 -145.5t-341.5 145.5t-80.5 366.5q38 221 209.5 366.5t392.5 145.5zM381 164q130 0 235 97t129 231t-47.5 230.5t-201.5 96.5t-235.5 -96.5 t-129.5 -230.5t48 -231t202 -97z" />
<glyph unicode="&#xf3;" horiz-adv-x="1208" d="M436 1157l-78 94l7 29l344 319h28l90 -108l-6 -29zM528 1004q221 0 340.5 -145.5t81.5 -366.5q-40 -221 -210.5 -366.5t-391.5 -145.5t-341.5 145.5t-80.5 366.5q38 221 209.5 366.5t392.5 145.5zM381 164q130 0 235 97t129 231t-47.5 230.5t-201.5 96.5t-235.5 -96.5 t-129.5 -230.5t48 -231t202 -97z" />
<glyph unicode="&#xf4;" horiz-adv-x="1208" d="M346 1157l-78 94l6 29l342 299h29l236 -299l-7 -29l-110 -94l-172 205zM528 1004q221 0 340.5 -145.5t81.5 -366.5q-40 -221 -210.5 -366.5t-391.5 -145.5t-341.5 145.5t-80.5 366.5q38 221 209.5 366.5t392.5 145.5zM381 164q130 0 235 97t129 231t-47.5 230.5 t-201.5 96.5t-235.5 -96.5t-129.5 -230.5t48 -231t202 -97z" />
<glyph unicode="&#xf5;" horiz-adv-x="1208" d="M367 1167h-119q30 104 94 161.5t143 57.5q49 0 96 -20t85.5 -39.5t66.5 -19.5l55 79h119q-64 -219 -227 -219q-50 0 -96.5 20t-87 40t-74.5 20zM528 1004q221 0 340.5 -145.5t81.5 -366.5q-40 -221 -210.5 -366.5t-391.5 -145.5t-341.5 145.5t-80.5 366.5 q38 221 209.5 366.5t392.5 145.5zM381 164q130 0 235 97t129 231t-47.5 230.5t-201.5 96.5t-235.5 -96.5t-129.5 -230.5t48 -231t202 -97z" />
<glyph unicode="&#xf6;" horiz-adv-x="1208" d="M322 1249l-99 119l6 29l140 119h28l99 -119l-7 -29l-139 -119h-28zM772 1249l-98 119l6 29l139 119h29l98 -119l-6 -29l-139 -119h-29zM528 1004q221 0 340.5 -145.5t81.5 -366.5q-40 -221 -210.5 -366.5t-391.5 -145.5t-341.5 145.5t-80.5 366.5q38 221 209.5 366.5 t392.5 145.5zM381 164q130 0 235 97t129 231t-47.5 230.5t-201.5 96.5t-235.5 -96.5t-129.5 -230.5t48 -231t202 -97z" />
<glyph unicode="&#xf7;" horiz-adv-x="983" d="M535 989l-125 -106h-29l-88 106l4 27l125 106h29l88 -106zM776 614l-22 -20h-820l-18 20l27 144l24 20h819l17 -20zM418 336l-125 -107h-29l-88 107l6 26l125 107h29l88 -107z" />
<glyph unicode="&#xf8;" horiz-adv-x="1208" d="M905 1063l-98 -145q90 -68 128 -179.5t15 -246.5q-40 -221 -210.5 -366.5t-391.5 -145.5q-83 0 -147 20l-41 -61l-23 -21h-164l-18 21l94 143q-80 68 -113 175t-10 235q38 221 209.5 366.5t392.5 145.5q64 0 123 -15l49 74l25 20h164zM131 492q-22 -131 43 -224l363 549 q-12 2 -41 2q-130 0 -235.5 -96.5t-129.5 -230.5zM381 164q130 0 235 97t129 231q25 146 -59 243l-373 -563q27 -8 68 -8z" />
<glyph unicode="&#xf9;" horiz-adv-x="1112" d="M616 1157l-278 305l6 29l127 108h29l233 -319l-6 -29zM895 963l-68 -383l-98 -560l-22 -20h-154l-18 20l143 205q-221 -245 -483 -245q-129 0 -197.5 44.5t-82 131t8.5 213.5l105 594l24 20h154l16 -20l-104 -594q-18 -108 7.5 -156.5t121.5 -48.5q105 0 182.5 42.5 t159.5 121.5l43 252l67 383l25 20h154z" />
<glyph unicode="&#xfa;" horiz-adv-x="1112" d="M481 1157l-78 94l7 29l344 319h28l90 -108l-6 -29zM895 963l-68 -383l-98 -560l-22 -20h-154l-18 20l143 205q-221 -245 -483 -245q-129 0 -197.5 44.5t-82 131t8.5 213.5l105 594l24 20h154l16 -20l-104 -594q-18 -108 7.5 -156.5t121.5 -48.5q105 0 182.5 42.5 t159.5 121.5l43 252l67 383l25 20h154z" />
<glyph unicode="&#xfb;" horiz-adv-x="1112" d="M289 1157l-78 94l6 29l342 299h29l235 -299l-6 -29l-110 -94l-172 205zM895 963l-68 -383l-98 -560l-22 -20h-154l-18 20l143 205q-221 -245 -483 -245q-129 0 -197.5 44.5t-82 131t8.5 213.5l105 594l24 20h154l16 -20l-104 -594q-18 -108 7.5 -156.5t121.5 -48.5 q105 0 182.5 42.5t159.5 121.5l43 252l67 383l25 20h154z" />
<glyph unicode="&#xfc;" horiz-adv-x="1112" d="M264 1249l-98 119l6 29l139 119h29l98 -119l-6 -29l-139 -119h-29zM715 1249l-99 119l7 29l139 119h29l98 -119l-6 -29l-140 -119h-28zM895 963l-68 -383l-98 -560l-22 -20h-154l-18 20l143 205q-221 -245 -483 -245q-129 0 -197.5 44.5t-82 131t8.5 213.5l105 594l24 20 h154l16 -20l-104 -594q-18 -108 7.5 -156.5t121.5 -48.5q105 0 182.5 42.5t159.5 121.5l43 252l67 383l25 20h154z" />
<glyph unicode="&#xfd;" horiz-adv-x="1085" d="M375 1157l-78 94l6 29l344 319h29l90 -108l-6 -29zM950 963l-4 -25l-862 -1450h-229l-15 20l27 144l20 20h113l190 328l-227 938l4 25l25 20h182l188 -872l7 206l381 666h184z" />
<glyph unicode="&#xfe;" horiz-adv-x="1204" d="M535 1004q220 0 334.5 -144.5t76.5 -367.5q-40 -223 -206 -367.5t-386 -144.5q-121 0 -210.5 53.5t-143.5 150.5l72 -204l-90 -512l-191 30l184 1047l189 1063l201 30l-113 -634l-143 -205q88 97 196.5 151t229.5 54zM387 164q129 0 229.5 96.5t124.5 231.5t-43 231 t-196 96q-180 0 -303 -123l-29 -151l-45 -260q85 -121 262 -121z" />
<glyph unicode="&#xff;" horiz-adv-x="1085" d="M260 1249l-98 119l6 29l139 119h29l98 -119l-6 -29l-139 -119h-29zM711 1249l-99 119l6 29l140 119h28l99 -119l-6 -29l-140 -119h-28zM950 963l-4 -25l-862 -1450h-229l-15 20l27 144l20 20h113l190 328l-227 938l4 25l25 20h182l188 -872l7 206l381 666h184z" />
<glyph unicode="&#x152;" horiz-adv-x="2281" d="M2142 1516l-24 -144l-25 -20l-836 14q108 -75 165 -194.5t51 -280.5h456l19 -21l-27 -143l-25 -20h-450q-44 -184 -148 -320t-251 -217l880 14l19 -20l-27 -144l-23 -20h-1294l10 61l-10 -61q-146 0 -267.5 54.5t-203 152t-114 243.5t-1.5 318q30 172 113.5 318 t199.5 243.5t256.5 152t286.5 54.5l-32 -184q-145 0 -272.5 -72.5t-217 -206t-119.5 -305.5q-45 -260 68.5 -422t333.5 -162q145 0 273 72.5t217.5 206t119.5 305.5q45 260 -69 422t-334 162l12 61l20 123h1254z" />
<glyph unicode="&#x153;" horiz-adv-x="1873" d="M1286 1004q59 0 111 -12t103 -41t81.5 -76.5t45 -118t-4.5 -166.5q-6 -48 -27 -107l-26 -20h-643q-12 -126 54.5 -212.5t188.5 -86.5q165 0 304 82l16 -21l-33 -186q-147 -59 -319 -59q-136 0 -231.5 59t-137.5 164q-78 -105 -191.5 -164t-248.5 -59q-219 0 -330.5 144.5 t-71.5 367.5q39 223 201 367.5t381 144.5q135 0 226.5 -58t133.5 -162q75 103 184 161.5t234 58.5zM1255 829q-106 0 -184.5 -62.5t-120.5 -168.5l473 20q21 104 -29 157.5t-139 53.5zM360 164q128 0 224.5 95.5t120.5 232.5q24 136 -39 231.5t-191 95.5t-224 -95t-120 -232 t38.5 -232.5t190.5 -95.5z" />
<glyph unicode="&#x178;" horiz-adv-x="1341" d="M633 1798l-139 -119h-29l-98 119l6 29l139 119h29l98 -119zM1104 1798l-139 -119h-29l-98 119l6 29l139 119h29l98 -119zM59 1536h191l16 -20l361 -809l-17 213l494 596l24 20h191l16 -20l-698 -854l-115 -642l-22 -20h-164l-19 20l115 642l-397 854z" />
<glyph unicode="&#x2c6;" horiz-adv-x="606" d="M580 1280l-7 -29l-110 -94l-172 205l-246 -205l-78 94l6 29l342 299h29z" />
<glyph unicode="&#x2dc;" horiz-adv-x="620" d="M385 1167q-50 0 -96.5 20t-87 40t-74.5 20l-55 -80h-119q30 104 94 161.5t143 57.5q49 0 96 -20t85.5 -39.5t66.5 -19.5l56 79h118q-64 -219 -227 -219z" />
<glyph unicode="&#x2000;" horiz-adv-x="1024" />
<glyph unicode="&#x2001;" horiz-adv-x="2048" />
<glyph unicode="&#x2002;" horiz-adv-x="1024" />
<glyph unicode="&#x2003;" horiz-adv-x="2048" />
<glyph unicode="&#x2004;" horiz-adv-x="682" />
<glyph unicode="&#x2005;" horiz-adv-x="512" />
<glyph unicode="&#x2006;" horiz-adv-x="341" />
<glyph unicode="&#x2007;" horiz-adv-x="341" />
<glyph unicode="&#x2008;" horiz-adv-x="256" />
<glyph unicode="&#x2009;" horiz-adv-x="409" />
<glyph unicode="&#x200a;" horiz-adv-x="113" />
<glyph unicode="&#x2010;" horiz-adv-x="819" d="M598 532l-23 -20h-655l-18 20l26 144l25 20h655l17 -20z" />
<glyph unicode="&#x2011;" horiz-adv-x="819" d="M598 532l-23 -20h-655l-18 20l26 144l25 20h655l17 -20z" />
<glyph unicode="&#x2012;" horiz-adv-x="819" d="M598 532l-23 -20h-655l-18 20l26 144l25 20h655l17 -20z" />
<glyph unicode="&#x2013;" horiz-adv-x="1228" d="M1008 532l-23 -20h-1065l-18 20l26 144l25 20h1065l16 -20z" />
<glyph unicode="&#x2014;" horiz-adv-x="1843" d="M1622 532l-23 -20h-1679l-18 20l26 144l25 20h1679l17 -20z" />
<glyph unicode="&#x2018;" horiz-adv-x="499" d="M215 1155l-154 76v29l254 378l123 -65v-29l-196 -389h-27z" />
<glyph unicode="&#x2019;" horiz-adv-x="499" d="M285 1638l153 -75v-29l-254 -379l-123 66v28l197 389h27z" />
<glyph unicode="&#x201a;" horiz-adv-x="438" d="M10 229l142 -75l-7 -29l-319 -379l-113 66l6 28l265 389h26z" />
<glyph unicode="&#x201c;" horiz-adv-x="909" d="M215 1155l-154 76v29l254 378l123 -65v-29l-196 -389h-27zM625 1155l-154 76v29l254 378l123 -65v-29l-197 -389h-26z" />
<glyph unicode="&#x201d;" horiz-adv-x="909" d="M285 1638l153 -75v-29l-254 -379l-123 66v28l197 389h27zM694 1638l154 -75v-29l-254 -379l-123 66v28l197 389h26z" />
<glyph unicode="&#x201e;" horiz-adv-x="847" d="M10 229l142 -75l-7 -29l-319 -379l-113 66l6 28l265 389h26zM420 229l141 -75l-6 -29l-319 -379l-113 66l6 28l264 389h27z" />
<glyph unicode="&#x2022;" horiz-adv-x="579" d="M348 530l-227 -192h-49l-160 192l8 50l227 194h50l159 -194z" />
<glyph unicode="&#x2026;" horiz-adv-x="1228" d="M123 129l-152 -129h-32l-107 129l6 33l152 129h33l106 -129zM532 129l-151 -129h-33l-106 129l6 33l151 129h33l107 -129zM942 129l-151 -129h-33l-107 129l6 33l152 129h33l106 -129z" />
<glyph unicode="&#x202f;" horiz-adv-x="409" />
<glyph unicode="&#x2039;" horiz-adv-x="575" d="M109 549l172 -270l-113 -95h-29l-235 351l4 28l360 350h29l78 -94z" />
<glyph unicode="&#x203a;" horiz-adv-x="575" d="M360 563l-4 -28l-362 -351h-29l-76 95l267 270l-172 270l110 94h29z" />
<glyph unicode="&#x205f;" horiz-adv-x="512" />
<glyph unicode="&#x20ac;" horiz-adv-x="1409" d="M887 1556q119 0 210 -23t183 -77l-35 -196l-24 -21q-95 67 -175 95t-194 28q-169 0 -299.5 -103.5t-202.5 -285.5h479l19 -21l-19 -102l-24 -21h-500l-12 -61q-4 -19 -8 -61h497l19 -21l-19 -102l-24 -21h-479q8 -182 101.5 -285.5t262.5 -103.5q114 0 203.5 28t208.5 95 l16 -21l-35 -196q-110 -54 -209.5 -77t-218.5 -23q-247 0 -391 157.5t-147 425.5h-152l-16 21l18 102l23 21h135l10 61q2 10 6 30.5t6 30.5h-135l-16 21l18 102l23 21h151q99 268 299 425.5t447 157.5z" />
<glyph unicode="&#x2122;" horiz-adv-x="3014" d="M754 1352l-103 -584l-133 -748l-22 -20h-164l-19 20l133 748l103 584h-492l-16 20l25 144l24 20h1188l16 -20l-24 -144l-25 -20h-491zM2875 1516l-131 -748l-133 -748l-22 -20h-164l-19 20l134 748l61 352l129 193l-702 -699l-453 699l59 -193l-61 -352l-133 -748 l-23 -20h-164l-18 20l133 748l131 748l25 20h164l16 -20l455 -738l-48 160l560 578l24 20h164z" />
<glyph unicode="&#x25fc;" horiz-adv-x="983" d="M0 983h983v-983h-983v983z" />
</font>
</defs>
</svg>
